<svg width="36" height="36" viewBox="0 0 36 36" fill="none" xmlns="http://www.w3.org/2000/svg">
<path d="M27.225 30.7125L16.9875 20.475C16.3875 20.75 15.781 20.975 15.168 21.15C14.5548 21.325 13.8932 21.4125 13.1835 21.4125C10.9797 21.4125 9.10663 20.6397 7.56413 19.0939C6.02138 17.5479 5.25 15.6708 5.25 13.4625C5.25 12.9375 5.29963 12.4193 5.39888 11.9078C5.49838 11.396 5.64875 10.9018 5.85 10.425L11.1 15.5625L15.375 11.3625L10.2375 6.15004C10.7142 5.94879 11.1971 5.78591 11.6861 5.66141C12.1751 5.53716 12.6797 5.47504 13.2 5.47504C15.4292 5.47504 17.324 6.25129 18.8842 7.80379C20.4447 9.35629 21.225 11.2414 21.225 13.4592C21.225 14.2114 21.1437 14.8938 20.9812 15.5063C20.8187 16.1188 20.5875 16.7 20.2875 17.25L30.525 27.4875C30.7 27.67 30.7875 27.9094 30.7875 28.2057C30.7875 28.5019 30.7027 28.7348 30.5332 28.9043L28.5667 30.7958C28.4047 30.9653 28.1844 31.0375 27.9056 31.0125C27.6269 30.9875 27.4 30.8875 27.225 30.7125ZM27.9375 30.3L30.0375 28.2L19.2375 17.4C19.6125 16.825 19.9 16.2 20.1 15.525C20.3 14.85 20.4 14.1625 20.4 13.4625C20.4 11.4375 19.5562 9.62504 17.8687 8.02504C16.1812 6.42504 14.0625 5.86254 11.5125 6.33754L15.8625 10.6875C16.0625 10.8853 16.1562 11.1222 16.1437 11.3982C16.1312 11.6744 16.025 11.9125 15.825 12.1125L11.8125 16.05C11.608 16.25 11.3694 16.35 11.0966 16.35C10.8239 16.35 10.5875 16.25 10.3875 16.05L6.1125 11.775C5.7125 14.65 6.32612 16.8375 7.95337 18.3375C9.58062 19.8375 11.3295 20.5875 13.2 20.5875C13.8667 20.5875 14.5396 20.4938 15.2186 20.3063C15.8979 20.1188 16.525 19.825 17.1 19.425L27.9375 30.3Z" fill="currentColor"/>
</svg>
