<svg width="36" height="36" viewBox="0 0 36 36" fill="none" xmlns="http://www.w3.org/2000/svg">
<path d="M13.8751 18.1125L17.4001 14.5875L13.8001 10.9875L12.0001 12.825L11.4001 12.225L13.2376 10.425L9.60007 6.78754L6.07507 10.3125L13.8751 18.1125ZM25.6501 29.8875L29.1751 26.3625L25.5376 22.725L23.7376 24.5625L23.1376 23.9625L24.9376 22.1625L21.4126 18.6L17.8876 22.125L25.6501 29.8875ZM10.5376 29.55H6.45007V25.4625L13.2751 18.6375L4.95007 10.3125L9.56257 5.66254L17.9626 14.025L25.2751 6.71254C25.3751 6.61254 25.4751 6.54379 25.5751 6.50629C25.6751 6.46879 25.7876 6.45004 25.9126 6.45004C26.0126 6.45004 26.1126 6.46879 26.2126 6.50629C26.3126 6.54379 26.4126 6.61254 26.5126 6.71254L29.2876 9.60004C29.3876 9.70004 29.4501 9.80004 29.4751 9.90004C29.5001 10 29.5126 10.1 29.5126 10.2C29.5126 10.325 29.5001 10.4313 29.4751 10.5188C29.4501 10.6063 29.3876 10.7 29.2876 10.8L22.0501 18.0375L30.3376 26.4L25.7251 31.05L17.3626 22.725L10.5376 29.55ZM7.27507 28.725H10.1626L24.9376 13.95L22.0501 11.0625L7.27507 25.8375V28.725Z" fill="currentColor"/>
</svg>
