<svg width="32" height="32" viewBox="0 0 32 32" fill="none" xmlns="http://www.w3.org/2000/svg">
<g clip-path="url(#clip0_6319_51577)">
<path d="M15.9998 2.7106C9.3724 2.7106 3.99976 8.08324 3.99976 14.7106C3.99976 20.3381 7.87432 25.0604 13.101 26.3573V18.3778H10.6266V14.7106H13.101V13.1304C13.101 9.04612 14.9495 7.153 18.9594 7.153C19.7198 7.153 21.0316 7.30228 21.5682 7.45108V10.7751C21.285 10.7453 20.793 10.7304 20.182 10.7304C18.2145 10.7304 17.4542 11.4759 17.4542 13.4136V14.7106H21.3738L20.7004 18.3778H17.4542V26.6228C23.3961 25.9052 28.0002 20.846 28.0002 14.7106C27.9998 8.08324 22.6271 2.7106 15.9998 2.7106Z" fill="currentColor"/>
</g>
</g>
<defs>
<clipPath id="clip0_6319_51577">
<rect width="32" height="32" fill="currentColor"/>
</clipPath>
</defs>
</svg>
