<svg width="36" height="36" viewBox="0 0 36 36" fill="none" xmlns="http://www.w3.org/2000/svg">
<path d="M10.6125 30.075V25.3875H5.925V24.5625H10.6125V18.4125H5.925V17.5875H10.6125V11.4H5.925V10.575H10.6125V5.92499H11.4375V10.575H17.5875V5.92499H18.4125V10.575H24.6V5.92499H25.425V10.575H30.075V11.4H25.425V17.5875H30.075V18.4125H25.425V24.5625H30.075V25.3875H25.425V30.075H24.6V25.3875H18.4125V30.075H17.5875V25.3875H11.4375V30.075H10.6125ZM11.4375 24.5625H17.5875V18.4125H11.4375V24.5625ZM18.4125 24.5625H24.6V18.4125H18.4125V24.5625ZM11.4375 17.5875H17.5875V11.4H11.4375V17.5875ZM18.4125 17.5875H24.6V11.4H18.4125V17.5875Z" fill="currentColor"/>
</svg>
