<svg width="36" height="36" viewBox="0 0 36 36" fill="none" xmlns="http://www.w3.org/2000/svg">
<path d="M18 30.3375L16.0312 28.5563C13.7937 26.5313 11.9437 24.7875 10.4812 23.325C9.01875 21.8625 7.85625 20.55 6.99375 19.3875C6.13125 18.225 5.52825 17.1609 5.18475 16.1953C4.84158 15.2297 4.66999 14.2453 4.66999 13.2422C4.66999 11.2547 5.33433 9.59533 6.66299 8.26399C7.99166 6.93283 9.64683 6.26724 11.6285 6.26724C12.8973 6.26724 14.0859 6.56724 15.1942 7.16724C16.3026 7.76724 17.2378 8.62849 18 9.75099C18.7622 8.62849 19.6974 7.76724 20.8058 7.16724C21.9141 6.56724 23.1027 6.26724 24.3715 6.26724C26.3532 6.26724 28.0083 6.93283 29.337 8.26399C30.6657 9.59533 31.33 11.2547 31.33 13.2422C31.33 14.2453 31.1584 15.2297 30.8153 16.1953C30.4718 17.1609 29.8688 18.225 29.0063 19.3875C28.1438 20.55 26.9813 21.8625 25.5188 23.325C24.0563 24.7875 22.2063 26.5313 19.9688 28.5563L18 30.3375Z" fill="currentColor"/>
</svg>
