<svg width="36" height="36" viewBox="0 0 36 36" fill="none" xmlns="http://www.w3.org/2000/svg">
<path d="M18 30.3375L16.0312 28.5563C13.7937 26.5313 11.9437 24.7875 10.4812 23.325C9.01875 21.8625 7.85625 20.55 6.99375 19.3875C6.13125 18.225 5.52825 17.1609 5.18475 16.1953C4.84158 15.2297 4.66999 14.2453 4.66999 13.2422C4.66999 11.2547 5.33433 9.59533 6.66299 8.26399C7.99166 6.93283 9.64683 6.26724 11.6285 6.26724C12.8973 6.26724 14.0859 6.56724 15.1942 7.16724C16.3026 7.76724 17.2378 8.62849 18 9.75099C18.7622 8.62849 19.6974 7.76724 20.8058 7.16724C21.9141 6.56724 23.1027 6.26724 24.3715 6.26724C26.3532 6.26724 28.0083 6.93283 29.337 8.26399C30.6657 9.59533 31.33 11.2547 31.33 13.2422C31.33 14.2453 31.1584 15.2297 30.8153 16.1953C30.4718 17.1609 29.8688 18.225 29.0063 19.3875C28.1438 20.55 26.9813 21.8625 25.5188 23.325C24.0563 24.7875 22.2063 26.5313 19.9688 28.5563L18 30.3375ZM18 28.305C20.13 26.3925 21.8835 24.7531 23.2605 23.3868C24.6375 22.0208 25.7269 20.8336 26.5286 19.8252C27.3304 18.8169 27.8895 17.9203 28.2059 17.1354C28.5223 16.3508 28.6805 15.5731 28.6805 14.8023C28.6805 13.4429 28.2762 12.3122 27.4676 11.4101C26.6589 10.5083 25.6232 10.0574 24.3605 10.0574C23.3517 10.0574 22.4192 10.3617 21.5629 10.9703C20.7067 11.5789 19.9939 12.4313 19.4246 13.5274H16.5754C15.9999 12.4251 15.2856 11.5711 14.4326 10.9656C13.5796 10.3601 12.6486 10.0574 11.6395 10.0574C10.3829 10.0574 9.34875 10.5083 8.53699 11.4101C7.72524 12.3122 7.31936 13.4429 7.31936 14.8023C7.31936 15.5731 7.47758 16.3508 7.79399 17.1354C8.11041 17.9203 8.66949 18.8169 9.47124 19.8252C10.273 20.8336 11.3624 22.0208 12.7394 23.3868C14.1164 24.7531 15.8699 26.3925 18 28.305Z" fill="currentColor"/>
</svg>
