<svg width="36" height="36" viewBox="0 0 36 36" fill="none" xmlns="http://www.w3.org/2000/svg">
<path d="M19.9001 32.55H16.9125C16.6268 32.55 16.3761 32.4485 16.1606 32.2455C15.9451 32.0428 15.8374 31.8109 15.8374 31.5499V24.0124C15.8374 23.7299 15.9451 23.4926 16.1606 23.3006C16.3761 23.1086 16.6268 23.0126 16.9125 23.0126H17.925V16.65C17.925 16.325 17.7938 16.05 17.5313 15.825C17.2688 15.6 16.95 15.4875 16.575 15.4875H7.20001C6.56626 15.4875 6.03276 15.2803 5.59951 14.8658C5.16651 14.451 4.95001 13.9583 4.95001 13.3875V9.01239C4.95001 8.45364 5.16651 7.97026 5.59951 7.56226C6.03276 7.15401 6.56626 6.94989 7.20001 6.94989H8.72514V5.95014C8.72514 5.68914 8.83276 5.45726 9.04801 5.25451C9.26351 5.05151 9.51414 4.95001 9.79989 4.95001H26.9749C27.2609 4.95001 27.5115 5.05151 27.7268 5.25451C27.9423 5.45726 28.05 5.68914 28.05 5.95014V8.89989C28.05 9.16089 27.9423 9.39276 27.7268 9.59551C27.5115 9.79851 27.2609 9.90001 26.9749 9.90001H9.79989C9.51414 9.90001 9.26351 9.79851 9.04801 9.59551C8.83276 9.39276 8.72514 9.16089 8.72514 8.89989V7.84989H7.20001C6.80001 7.84989 6.47501 7.96239 6.22501 8.18739C5.97501 8.41239 5.85001 8.68739 5.85001 9.01239V13.3875C5.85001 13.7208 5.97501 14.0041 6.22501 14.2376C6.47501 14.4709 6.80001 14.5875 7.20001 14.5875H16.575C17.1838 14.5875 17.7109 14.7916 18.1564 15.1999C18.6021 15.6079 18.825 16.0913 18.825 16.65V23.0126H19.9001C20.1859 23.0126 20.4303 23.1086 20.6333 23.3006C20.836 23.4926 20.9374 23.7299 20.9374 24.0124V31.5499C20.9374 31.8109 20.836 32.0428 20.6333 32.2455C20.4303 32.4485 20.1859 32.55 19.9001 32.55ZM16.7374 31.65H20.0374V23.9126H16.7374V31.65ZM9.62514 9.00001H27.15V5.85001H9.62514V9.00001Z" fill="currentColor"/>
</svg>
