<svg width="36" height="36" viewBox="0 0 36 36" fill="none" xmlns="http://www.w3.org/2000/svg">
<path d="M4.2 17.5792V16.7542H7.3875V17.5792H4.2ZM10.275 10.0417L7.95 7.67915L8.5125 7.11665L10.8375 9.47915L10.275 10.0417ZM17.5875 6.66665V3.36665H18.4125V6.66665H17.5875ZM25.65 10.0042L25.0875 9.40415L27.45 7.11665L28.0125 7.71665L25.65 10.0042ZM28.6125 17.5792V16.7542H31.8V17.5792H28.6125Z" fill="currentColor"/>
<path d="M17.625 31.7917C17.075 31.7917 16.625 31.6229 16.275 31.2854C15.925 30.9479 15.775 30.5292 15.825 30.0292H14.55C14.3557 30.0292 14.1696 29.9403 13.9916 29.7625C13.8139 29.5845 13.725 29.3984 13.725 29.2042V24.9292C12.075 24.0542 10.825 22.8854 9.975 21.4229C9.125 19.9604 8.7 18.4167 8.7 16.7917C8.7 14.2917 9.5625 12.1792 11.2875 10.4542C13.0125 8.72917 15.125 7.86667 17.625 7.86667C20.125 7.86667 22.2375 8.72917 23.9625 10.4542C25.6875 12.1792 26.55 14.2917 26.55 16.7917C26.55 18.4167 26.1272 19.9612 25.2817 21.4252C24.4365 22.8894 23.1842 24.0574 21.525 24.9292V29.2042C21.525 29.3984 21.4361 29.5845 21.2584 29.7625C21.0806 29.9403 20.8945 30.0292 20.7 30.0292H19.425C19.475 30.5292 19.325 30.9479 18.975 31.2854C18.625 31.6229 18.175 31.7917 17.625 31.7917ZM14.55 29.2042H20.7V27.6292H14.55V29.2042ZM14.55 26.5792H20.7V25.0417H14.55V26.5792ZM14.2125 24.2167H17.175V19.0042L14.0625 15.8917L14.7 15.2542L17.625 18.2167L20.55 15.2542L21.1875 15.8917L18.075 19.0042V24.2167H21.0375C22.4375 23.5667 23.5687 22.5792 24.4312 21.2542C25.2937 19.9292 25.725 18.4418 25.725 16.792C25.725 14.5418 24.9375 12.6292 23.3625 11.0542C21.7875 9.47917 19.875 8.69167 17.625 8.69167C15.375 8.69167 13.4625 9.47917 11.8875 11.0542C10.3125 12.6292 9.525 14.5418 9.525 16.792C9.525 18.4418 9.95625 19.9292 10.8187 21.2542C11.6812 22.5792 12.8125 23.5667 14.2125 24.2167Z" fill="currentColor"/>
</svg>
