<svg width="24" height="24" viewBox="0 0 24 24" fill="none" xmlns="http://www.w3.org/2000/svg">
<path d="M12 19.5C11.4658 19.5 11.0085 19.3097 10.6282 18.929C10.2475 18.5487 10.0572 18.0915 10.0572 17.5572C10.0572 17.0229 10.2475 16.5657 10.6282 16.185C11.0085 15.8047 11.4658 15.6143 12 15.6143C12.5343 15.6143 12.9915 15.8047 13.3718 16.185C13.7525 16.5657 13.9428 17.0229 13.9428 17.5572C13.9428 18.0915 13.7525 18.5487 13.3718 18.929C12.9915 19.3097 12.5343 19.5 12 19.5ZM12 13.9428C11.4658 13.9428 11.0085 13.7525 10.6282 13.3718C10.2475 12.9915 10.0572 12.5343 10.0572 12C10.0572 11.4658 10.2475 11.0085 10.6282 10.6282C11.0085 10.2475 11.4658 10.0572 12 10.0572C12.5343 10.0572 12.9915 10.2475 13.3718 10.6282C13.7525 11.0085 13.9428 11.4658 13.9428 12C13.9428 12.5343 13.7525 12.9915 13.3718 13.3718C12.9915 13.7525 12.5343 13.9428 12 13.9428ZM12 8.38575C11.4658 8.38575 11.0085 8.19545 10.6282 7.81475C10.2475 7.43442 10.0572 6.97718 10.0572 6.44288C10.0572 5.90859 10.2475 5.45134 10.6282 5.07101C11.0085 4.69032 11.4658 4.5 12 4.5C12.5343 4.5 12.9915 4.69032 13.3718 5.07101C13.7525 5.45134 13.9428 5.90859 13.9428 6.44288C13.9428 6.97718 13.7525 7.43442 13.3718 7.81475C12.9915 8.19545 12.5343 8.38575 12 8.38575Z" fill="currentColor"/>
</svg>
