<svg width="36" height="36" viewBox="0 0 36 36" fill="none" xmlns="http://www.w3.org/2000/svg">
<path d="M16.095 7.028V22.364C16.095 23.492 16.335 24.26 16.815 24.668C17.295 25.052 18.111 25.244 19.263 25.244V26C18.783 25.976 18.075 25.952 17.139 25.928C16.227 25.88 15.279 25.856 14.295 25.856C13.143 25.856 12.039 25.88 10.983 25.928C9.92695 25.952 9.11095 25.976 8.53495 26V25.244C9.68695 25.244 10.587 25.052 11.235 24.668C11.883 24.26 12.207 23.468 12.207 22.292V13.544C12.207 12.392 12.087 11.54 11.847 10.988C11.631 10.436 11.223 10.076 10.623 9.908C10.047 9.74 9.25495 9.656 8.24695 9.656V8.864C10.071 8.816 11.595 8.66 12.819 8.396C14.043 8.132 15.135 7.676 16.095 7.028ZM24.7358 21.572C25.4558 21.572 26.0558 21.812 26.5358 22.292C27.0398 22.748 27.2918 23.336 27.2918 24.056C27.2918 24.752 27.0398 25.34 26.5358 25.82C26.0558 26.276 25.4558 26.504 24.7358 26.504C24.0158 26.504 23.4038 26.276 22.8998 25.82C22.4198 25.34 22.1798 24.752 22.1798 24.056C22.1798 23.336 22.4198 22.748 22.8998 22.292C23.4038 21.812 24.0158 21.572 24.7358 21.572Z" fill="currentColor"/>
</svg>
