<svg width="40" height="40" viewBox="0 0 40 40" fill="none" xmlns="http://www.w3.org/2000/svg">
<ellipse cx="20" cy="20" rx="20" ry="20" fill="currentColor"/>
<path d="M21.593 9.58218V24.9182C21.593 26.0462 21.833 26.8142 22.313 27.2222C22.793 27.6062 23.609 27.7982 24.761 27.7982V28.5542C24.281 28.5302 23.573 28.5062 22.637 28.4822C21.725 28.4342 20.777 28.4102 19.793 28.4102C18.641 28.4102 17.537 28.4342 16.481 28.4822C15.425 28.5062 14.609 28.5302 14.033 28.5542V27.7982C15.185 27.7982 16.085 27.6062 16.733 27.2222C17.381 26.8142 17.705 26.0222 17.705 24.8462V16.0982C17.705 14.9462 17.585 14.0942 17.345 13.5422C17.129 12.9902 16.721 12.6302 16.121 12.4622C15.545 12.2942 14.753 12.2102 13.745 12.2102V11.4182C15.569 11.3702 17.093 11.2142 18.317 10.9502C19.541 10.6862 20.633 10.2302 21.593 9.58218ZM30.2338 24.1262C30.9538 24.1262 31.5538 24.3662 32.0338 24.8462C32.5378 25.3022 32.7898 25.8902 32.7898 26.6102C32.7898 27.3062 32.5378 27.8942 32.0338 28.3742C31.5538 28.8302 30.9538 29.0582 30.2338 29.0582C29.5138 29.0582 28.9018 28.8302 28.3978 28.3742C27.9178 27.8942 27.6778 27.3062 27.6778 26.6102C27.6778 25.8902 27.9178 25.3022 28.3978 24.8462C28.9018 24.3662 29.5138 24.1262 30.2338 24.1262Z" fill="currentColor"/>
</svg>
