<svg width="36" height="36" viewBox="0 0 36 36" fill="none" xmlns="http://www.w3.org/2000/svg">
<path d="M17.925 31.05C16.15 31.05 14.475 30.7063 12.9 30.0188C11.325 29.3313 9.95001 28.4 8.77501 27.225C7.60001 26.05 6.66876 24.6688 5.98126 23.0813C5.29376 21.4938 4.95001 19.8 4.95001 18C4.95001 16.175 5.30001 14.4688 6.00001 12.8813C6.70001 11.2938 7.65626 9.91251 8.86876 8.73751C10.0813 7.56251 11.5063 6.63751 13.1438 5.96251C14.7813 5.28751 16.525 4.95001 18.375 4.95001C20.05 4.95001 21.65 5.22714 23.175 5.78139C24.7 6.33539 26.0438 7.11239 27.2063 8.11239C28.3688 9.11239 29.3 10.302 30 11.6813C30.7 13.0605 31.05 14.5668 31.05 16.2C31.05 18.3168 30.4604 20.0543 29.2811 21.4125C28.1021 22.7708 26.3668 23.4499 24.075 23.4499H21.45C20.65 23.4499 19.9625 23.7333 19.3875 24.3C18.8125 24.8668 18.525 25.5501 18.525 26.3501C18.525 27.1584 18.7125 27.7541 19.0875 28.1374C19.4625 28.5209 19.65 28.9668 19.65 29.475C19.65 29.9833 19.5041 30.3729 19.2124 30.6439C18.9209 30.9146 18.4918 31.05 17.925 31.05ZM9.64989 18.4249C9.96664 18.4249 10.2459 18.3041 10.4876 18.0626C10.7291 17.8209 10.8499 17.5416 10.8499 17.2249C10.8499 16.9084 10.7291 16.6293 10.4876 16.3875C10.2459 16.1458 9.96664 16.0249 9.64989 16.0249C9.33339 16.0249 9.05426 16.1458 8.81251 16.3875C8.57076 16.6293 8.44989 16.9084 8.44989 17.2249C8.44989 17.5416 8.57076 17.8209 8.81251 18.0626C9.05426 18.3041 9.33339 18.4249 9.64989 18.4249ZM14.2001 12.3499C14.5166 12.3499 14.7958 12.2291 15.0375 11.9876C15.2793 11.7459 15.4001 11.4666 15.4001 11.1499C15.4001 10.8334 15.2793 10.5543 15.0375 10.3125C14.7958 10.0708 14.5166 9.94989 14.2001 9.94989C13.8834 9.94989 13.6041 10.0708 13.3624 10.3125C13.1209 10.5543 13.0001 10.8334 13.0001 11.1499C13.0001 11.4666 13.1209 11.7459 13.3624 11.9876C13.6041 12.2291 13.8834 12.3499 14.2001 12.3499ZM21.7999 12.3499C22.1166 12.3499 22.3959 12.2291 22.6376 11.9876C22.8791 11.7459 22.9999 11.4666 22.9999 11.1499C22.9999 10.8334 22.8791 10.5543 22.6376 10.3125C22.3959 10.0708 22.1166 9.94989 21.7999 9.94989C21.4834 9.94989 21.2043 10.0708 20.9625 10.3125C20.7208 10.5543 20.5999 10.8334 20.5999 11.1499C20.5999 11.4666 20.7208 11.7459 20.9625 11.9876C21.2043 12.2291 21.4834 12.3499 21.7999 12.3499ZM26.3749 18.4249C26.6916 18.4249 26.9709 18.3041 27.2126 18.0626C27.4541 17.8209 27.5749 17.5416 27.5749 17.2249C27.5749 16.9084 27.4541 16.6293 27.2126 16.3875C26.9709 16.1458 26.6916 16.0249 26.3749 16.0249C26.0584 16.0249 25.7793 16.1458 25.5375 16.3875C25.2958 16.6293 25.1749 16.9084 25.1749 17.2249C25.1749 17.5416 25.2958 17.8209 25.5375 18.0626C25.7793 18.3041 26.0584 18.4249 26.3749 18.4249ZM17.925 30.15C18.2 30.15 18.4063 30.0938 18.5438 29.9813C18.6813 29.8688 18.75 29.7 18.75 29.475C18.75 29.125 18.5625 28.7791 18.1875 28.4374C17.8125 28.0959 17.625 27.4668 17.625 26.55C17.625 25.4333 17.9916 24.4874 18.7249 23.7124C19.4584 22.9374 20.3584 22.5499 21.4249 22.5499H24.075C26.075 22.5499 27.5875 21.9583 28.6125 20.775C29.6375 19.5918 30.15 18.0668 30.15 16.2C30.15 13.1 28.9584 10.6 26.5751 8.70001C24.1916 6.80001 21.4583 5.85001 18.375 5.85001C14.85 5.85001 11.8813 7.02501 9.46876 9.37501C7.05626 11.725 5.85001 14.6 5.85001 18C5.85001 21.3583 7.03126 24.2229 9.39376 26.5939C11.7563 28.9646 14.6 30.15 17.925 30.15Z" fill="currentColor"/>
</svg>
