<svg width="36" height="36" viewBox="0 0 36 36" fill="none" xmlns="http://www.w3.org/2000/svg">
<path d="M18.0001 16.8C16.8863 16.8 15.9517 16.4223 15.1962 15.6668C14.4404 14.911 14.0626 13.97 14.0626 12.8438C14.0626 11.7175 14.4404 10.7828 15.1962 10.0395C15.9517 9.29652 16.8863 8.92502 18.0001 8.92502C19.1138 8.92502 20.0486 9.29652 20.8043 10.0395C21.5598 10.7828 21.9376 11.7175 21.9376 12.8438C21.9376 13.97 21.5598 14.911 20.8043 15.6668C20.0486 16.4223 19.1138 16.8 18.0001 16.8ZM7.95007 27.3V25.5375C7.95007 24.9625 8.12507 24.4375 8.47507 23.9625C8.82507 23.4875 9.28757 23.1125 9.86257 22.8375C11.2876 22.2125 12.6747 21.7375 14.0239 21.4125C15.3732 21.0875 16.6982 20.925 17.9989 20.925C19.2997 20.925 20.6251 21.0875 21.9751 21.4125C23.3251 21.7375 24.7061 22.2175 26.1181 22.8525C26.7103 23.1203 27.1803 23.4909 27.5281 23.9644C27.8761 24.4381 28.0501 24.9625 28.0501 25.5375V27.3H7.95007ZM8.77507 26.475H27.2251V25.5375C27.2251 25.1625 27.0938 24.8 26.8313 24.45C26.5688 24.1 26.2001 23.8 25.7251 23.55C24.4501 22.925 23.1727 22.4688 21.8929 22.1813C20.6134 21.8938 19.3158 21.75 18.0001 21.75C16.6843 21.75 15.3804 21.8938 14.0884 22.1813C12.7962 22.4688 11.5251 22.925 10.2751 23.55C9.80007 23.8 9.43132 24.1 9.16882 24.45C8.90632 24.8 8.77507 25.1625 8.77507 25.5375V26.475ZM18.0001 15.975C18.8751 15.975 19.6126 15.675 20.2126 15.075C20.8126 14.475 21.1126 13.7375 21.1126 12.8625C21.1126 11.9875 20.8126 11.25 20.2126 10.65C19.6126 10.05 18.8751 9.75002 18.0001 9.75002C17.1251 9.75002 16.3876 10.05 15.7876 10.65C15.1876 11.25 14.8876 11.9875 14.8876 12.8625C14.8876 13.7375 15.1876 14.475 15.7876 15.075C16.3876 15.675 17.1251 15.975 18.0001 15.975Z" fill="currentColor"/>
</svg>
