<svg width="36" height="36" viewBox="0 0 36 36" fill="none" xmlns="http://www.w3.org/2000/svg">
<path d="M27.4404 29C25.2499 29 22.9504 28.4068 20.5418 27.2204C18.133 26.0337 15.867 24.373 13.7439 22.2382C11.6211 20.1032 9.96631 17.8373 8.77964 15.4404C7.59321 13.0437 7 10.7501 7 8.55964C7 8.11393 7.14512 7.74262 7.43536 7.44571C7.7256 7.14857 8.08845 7 8.52393 7H11.2079C11.6329 7 11.9901 7.125 12.2796 7.375C12.5694 7.625 12.7738 7.96036 12.8929 8.38107L13.5579 11.2057C13.6145 11.6002 13.5952 11.9523 13.5 12.2618C13.4048 12.5713 13.2442 12.8231 13.0182 13.0171L9.96429 15.7857C10.615 16.9364 11.3075 17.9939 12.0418 18.9582C12.7758 19.9225 13.5476 20.8213 14.3571 21.6546C15.246 22.5594 16.2063 23.3888 17.2382 24.1429C18.2699 24.8969 19.4087 25.6151 20.6546 26.2975L23.6429 23.2382C23.881 22.9763 24.1343 22.8056 24.4029 22.7261C24.6712 22.6468 24.9813 22.631 25.3332 22.6786L27.6189 23.1786C28.0396 23.2579 28.375 23.4573 28.625 23.7768C28.875 24.0961 29 24.4642 29 24.8811V27.4761C29 27.9115 28.8514 28.2744 28.5543 28.5646C28.2574 28.8549 27.8861 29 27.4404 29ZM9.5475 15.0239L12.5239 12.3332C12.627 12.238 12.6964 12.107 12.7321 11.9404C12.7679 11.7737 12.7699 11.6189 12.7382 11.4761L12.0475 8.42857C12.0158 8.2381 11.9365 8.09524 11.8096 8C11.6825 7.90476 11.5237 7.85714 11.3332 7.85714H8.35714C8.21429 7.85714 8.09524 7.90476 8 8C7.90476 8.09524 7.85714 8.21429 7.85714 8.35714C7.84119 9.33333 7.98607 10.3849 8.29179 11.5118C8.59726 12.6389 9.01583 13.8096 9.5475 15.0239ZM21.5 26.6904C22.4762 27.2063 23.5496 27.5813 24.7204 27.8154C25.8908 28.0496 26.865 28.1668 27.6429 28.1668C27.7857 28.1668 27.9048 28.1192 28 28.0239C28.0952 27.9287 28.1429 27.8096 28.1429 27.6668V24.7382C28.1429 24.5477 28.0952 24.3889 28 24.2618C27.9048 24.1349 27.7619 24.0556 27.5714 24.0239L25.0714 23.5C24.9286 23.4683 24.8036 23.4704 24.6964 23.5061C24.5893 23.5418 24.4762 23.6112 24.3571 23.7143L21.5 26.6904Z" fill="currentColor"/>
</svg>
