<svg width="32" height="32" viewBox="0 0 32 32" fill="none" xmlns="http://www.w3.org/2000/svg">
<path d="M16.0001 3.99997C9.37197 3.99997 4.00009 9.37184 4.00009 16C4.00009 21.0859 7.16415 25.4265 11.6267 27.175C11.5235 26.2234 11.4251 24.7703 11.6688 23.7343C11.8892 22.7968 13.0751 17.7718 13.0751 17.7718C13.0751 17.7718 12.7142 17.0547 12.7142 15.9906C12.7142 14.3218 13.6798 13.075 14.8845 13.075C15.9063 13.075 16.4032 13.8437 16.4032 14.7672C16.4032 15.7984 15.747 17.3359 15.4095 18.7609C15.1282 19.9562 16.0095 20.9312 17.186 20.9312C19.3188 20.9312 20.9595 18.6812 20.9595 15.4375C20.9595 12.564 18.897 10.5531 15.9485 10.5531C12.536 10.5531 10.5298 13.1125 10.5298 15.7609C10.5298 16.7922 10.9282 17.8984 11.4251 18.4984C11.5235 18.6156 11.5376 18.7234 11.5095 18.8406C11.4204 19.2203 11.2142 20.0359 11.1767 20.2C11.1251 20.4203 11.0032 20.4672 10.7735 20.3593C9.27353 19.6609 8.33603 17.4718 8.33603 15.7093C8.33603 11.9218 11.0876 8.44841 16.2626 8.44841C20.4251 8.44841 23.6595 11.4156 23.6595 15.3812C23.6595 19.5156 21.0532 22.8437 17.4345 22.8437C16.2204 22.8437 15.0767 22.2109 14.6829 21.4656C14.6829 21.4656 14.0829 23.7578 13.9376 24.3203C13.6657 25.3609 12.9345 26.6687 12.447 27.4656C13.572 27.8125 14.7626 28 16.0001 28C22.6282 28 28.0001 22.6281 28.0001 16C28.0001 9.37184 22.6282 3.99997 16.0001 3.99997Z" fill="currentColor"/>
</svg>
