<svg width="36" height="36" viewBox="0 0 36 36" fill="none" xmlns="http://www.w3.org/2000/svg">
<path d="M27 13.5H9C7.5375 13.5 6.31875 14.0062 5.34375 15.0188C4.36875 16.0312 3.88125 17.25 3.88125 18.675V24.375H9V30H27V24.375H32.1188V18.675C32.1188 17.25 31.6312 16.0312 30.6562 15.0188C29.6812 14.0062 28.4625 13.5 27 13.5ZM10.5 28.5V21H25.5V28.5H10.5ZM30.6188 22.875H27V19.5H9V22.875H5.38125V18.675C5.38125 17.6625 5.71875 16.8281 6.39375 16.1719C7.06875 15.5156 7.9125 15 9 15H27C28.0875 15 28.9312 15.5156 29.6062 16.1719C30.2812 16.8281 30.6188 17.6625 30.6188 18.675V22.875ZM27 17.625C27.3187 17.625 27.5859 17.518 27.8016 17.3039C28.0172 17.0898 28.125 16.825 28.125 16.5094C28.125 16.1937 28.0172 15.9258 27.8016 15.7055C27.5859 15.4852 27.3187 15.375 27 15.375C26.6813 15.375 26.4141 15.4852 26.1984 15.7055C25.9828 15.9258 25.875 16.1937 25.875 16.5094C25.875 16.825 25.9828 17.0898 26.1984 17.3039C26.4141 17.518 26.6813 17.625 27 17.625ZM24.75 6H11.25V13.5H24.75V6ZM23.25 12H12.75V7.5H23.25V12Z" fill="currentColor"/>
</svg>
