<svg width="36" height="36" viewBox="0 0 36 36" fill="none" xmlns="http://www.w3.org/2000/svg">
<path d="M9.78764 29.0625L14.0251 27.3375C13.6501 26.2125 13.3376 25.0687 13.0876 23.9062C12.8376 22.7437 12.6626 21.575 12.5626 20.4L10.3126 21.8625C10.1376 21.9875 10.0064 22.1312 9.91889 22.2937C9.83139 22.4562 9.78764 22.6375 9.78764 22.8375V29.0625ZM14.8501 27.225H21.1501C21.6251 25.825 22.0064 24.4 22.2939 22.95C22.5814 21.5 22.7251 20.0375 22.7251 18.5625C22.7251 16.2375 22.4001 14.175 21.7501 12.375C21.1001 10.575 19.8501 8.6 18.0001 6.45C16.1501 8.6 14.9001 10.575 14.2501 12.375C13.6001 14.175 13.2751 16.2375 13.2751 18.5625C13.2751 20.0375 13.4189 21.5 13.7064 22.95C13.9939 24.4 14.3751 25.825 14.8501 27.225ZM18.0001 18.4125C17.4501 18.4125 16.9939 18.2312 16.6314 17.8687C16.2689 17.5062 16.0876 17.05 16.0876 16.5C16.0876 15.95 16.2689 15.4937 16.6314 15.1312C16.9939 14.7687 17.4501 14.5875 18.0001 14.5875C18.5501 14.5875 19.0064 14.7687 19.3689 15.1312C19.7314 15.4937 19.9126 15.95 19.9126 16.5C19.9126 17.05 19.7314 17.5062 19.3689 17.8687C19.0064 18.2312 18.5501 18.4125 18.0001 18.4125ZM26.2126 29.0625V22.875C26.2126 22.675 26.1689 22.4875 26.0814 22.3125C25.9939 22.1375 25.8626 21.9875 25.6876 21.8625L23.4376 20.4C23.3376 21.575 23.1314 22.875 22.8189 24.3C22.5064 25.725 22.2251 26.75 21.9751 27.375L26.2126 29.0625ZM18.0001 5.25C19.9751 7.225 21.3939 9.2875 22.2564 11.4375C23.1189 13.5875 23.5501 15.925 23.5501 18.45C23.5501 18.6 23.5564 18.7625 23.5689 18.9375C23.5814 19.1125 23.5751 19.2875 23.5501 19.4625L26.1001 21.225C26.3751 21.4 26.6001 21.6375 26.7751 21.9375C26.9501 22.2375 27.0376 22.55 27.0376 22.875V30.2625L21.5251 28.05H14.4376L8.96264 30.2625V22.8375C8.96264 22.5125 9.04389 22.2 9.20639 21.9C9.36889 21.6 9.58764 21.3625 9.86264 21.1875L12.4501 19.425V18.45C12.4501 15.925 12.8814 13.5875 13.7439 11.4375C14.6064 9.2875 16.0251 7.225 18.0001 5.25Z" fill="currentColor"/>
</svg>
