<svg width="36" height="36" viewBox="0 0 36 36" fill="none" xmlns="http://www.w3.org/2000/svg">
<path d="M28.3082 29L19.6604 20.3522C18.9686 20.9518 18.173 21.413 17.2736 21.7358C16.3742 22.0587 15.4864 22.2201 14.6101 22.2201C12.4832 22.2201 10.683 21.484 9.20969 20.0118C7.73656 18.5399 7 16.7411 7 14.6156C7 12.4903 7.7361 10.6897 9.2083 9.21384C10.6803 7.73795 12.479 7 14.6045 7C16.7298 7 18.5304 7.73656 20.0063 9.20969C21.4822 10.683 22.2201 12.4832 22.2201 14.6101C22.2201 15.5556 22.0472 16.478 21.7013 17.3774C21.3553 18.2767 20.9057 19.0377 20.3522 19.6604L29 28.3082L28.3082 29ZM14.6101 21.2516C16.478 21.2516 18.0519 20.6116 19.3318 19.3318C20.6116 18.0519 21.2516 16.478 21.2516 14.6101C21.2516 12.7421 20.6116 11.1682 19.3318 9.88837C18.0519 8.60849 16.478 7.96855 14.6101 7.96855C12.7421 7.96855 11.1682 8.60849 9.88837 9.88837C8.60849 11.1682 7.96855 12.7421 7.96855 14.6101C7.96855 16.478 8.60849 18.0519 9.88837 19.3318C11.1682 20.6116 12.7421 21.2516 14.6101 21.2516Z" fill="currentColor"/>
</svg>
