<svg width="36" height="36" viewBox="0 0 36 36" fill="none" xmlns="http://www.w3.org/2000/svg">
<path d="M15.7876 31.05L15.2251 26.8875C14.6501 26.7125 14.0126 26.4312 13.3126 26.0437C12.6126 25.6562 12.0251 25.2375 11.5501 24.7875L7.72507 26.5125L5.51257 22.575L8.88757 20.0625C8.83757 19.7375 8.79382 19.4 8.75632 19.05C8.71882 18.7 8.70007 18.3625 8.70007 18.0375C8.70007 17.7375 8.71882 17.4125 8.75632 17.0625C8.79382 16.7125 8.83757 16.3375 8.88757 15.9375L5.51257 13.3875L7.72507 9.56248L11.5126 11.2125C12.0626 10.7625 12.6626 10.35 13.3126 9.97498C13.9626 9.59998 14.5876 9.32498 15.1876 9.14998L15.7876 4.94998H20.2126L20.7751 9.14998C21.4501 9.39998 22.0751 9.68748 22.6501 10.0125C23.2251 10.3375 23.7876 10.7375 24.3376 11.2125L28.3126 9.56248L30.4876 13.3875L26.9626 16.0125C27.0626 16.3875 27.1251 16.7375 27.1501 17.0625C27.1751 17.3875 27.1876 17.7 27.1876 18C27.1876 18.275 27.1688 18.575 27.1313 18.9C27.0938 19.225 27.0376 19.6 26.9626 20.025L30.4501 22.575L28.2376 26.5125L24.3376 24.75C23.7626 25.25 23.1813 25.6812 22.5938 26.0437C22.0063 26.4062 21.4001 26.675 20.7751 26.85L20.2126 31.05H15.7876ZM16.4626 30.225H19.5001L20.0626 26.0625C20.8126 25.8625 21.4938 25.5875 22.1063 25.2375C22.7188 24.8875 23.3626 24.4 24.0376 23.775L27.8626 25.425L29.3626 22.8375L25.9876 20.325C26.0876 19.85 26.1626 19.4312 26.2126 19.0687C26.2626 18.7062 26.2876 18.35 26.2876 18C26.2876 17.6 26.2626 17.2312 26.2126 16.8937C26.1626 16.5562 26.0876 16.175 25.9876 15.75L29.4376 13.1625L27.9376 10.575L24.0001 12.225C23.5501 11.725 22.9376 11.2375 22.1626 10.7625C21.3876 10.2875 20.6751 10.0125 20.0251 9.93748L19.5376 5.77498H16.4626L16.0126 9.89998C15.2126 10.05 14.4938 10.3062 13.8563 10.6687C13.2188 11.0312 12.5751 11.5375 11.9251 12.1875L8.06257 10.575L6.56257 13.1625L9.93757 15.6375C9.81257 15.9875 9.72507 16.3625 9.67507 16.7625C9.62507 17.1625 9.60007 17.5875 9.60007 18.0375C9.60007 18.4375 9.62507 18.825 9.67507 19.2C9.72507 19.575 9.80007 19.95 9.90007 20.325L6.56257 22.8375L8.06257 25.425L11.8876 23.8125C12.4876 24.4375 13.1126 24.925 13.7626 25.275C14.4126 25.625 15.1501 25.9 15.9751 26.1L16.4626 30.225ZM17.8876 21.1875C18.7876 21.1875 19.5438 20.8812 20.1563 20.2687C20.7688 19.6562 21.0751 18.9 21.0751 18C21.0751 17.1 20.7688 16.3437 20.1563 15.7312C19.5438 15.1187 18.7876 14.8125 17.8876 14.8125C17.0126 14.8125 16.2626 15.1187 15.6376 15.7312C15.0126 16.3437 14.7001 17.1 14.7001 18C14.7001 18.9 15.0126 19.6562 15.6376 20.2687C16.2626 20.8812 17.0126 21.1875 17.8876 21.1875Z" fill="currentColor"/>
</svg>
