<svg width="36" height="36" viewBox="0 0 36 36" fill="none" xmlns="http://www.w3.org/2000/svg">
<path d="M18.0001 18.4125C16.8001 18.4125 15.7938 18.0063 14.9813 17.1938C14.1688 16.3813 13.7626 15.375 13.7626 14.175C13.7626 12.975 14.1688 11.9688 14.9813 11.1563C15.7938 10.3438 16.8001 9.93753 18.0001 9.93753C19.2001 9.93753 20.2063 10.3438 21.0188 11.1563C21.8313 11.9688 22.2376 12.975 22.2376 14.175C22.2376 15.375 21.8313 16.3813 21.0188 17.1938C20.2063 18.0063 19.2001 18.4125 18.0001 18.4125ZM18.0001 17.5875C18.9751 17.5875 19.7876 17.2625 20.4376 16.6125C21.0876 15.9625 21.4126 15.15 21.4126 14.175C21.4126 13.2 21.0876 12.3875 20.4376 11.7375C19.7876 11.0875 18.9751 10.7625 18.0001 10.7625C17.0251 10.7625 16.2126 11.0875 15.5626 11.7375C14.9126 12.3875 14.5876 13.2 14.5876 14.175C14.5876 15.15 14.9126 15.9625 15.5626 16.6125C16.2126 17.2625 17.0251 17.5875 18.0001 17.5875ZM18.0001 30.975C15.1251 30.05 12.7313 28.2563 10.8188 25.5938C8.90632 22.9313 7.95007 19.925 7.95007 16.575V8.85003L18.0001 5.10003L28.0501 8.85003V16.575C28.0501 19.925 27.0938 22.9313 25.1813 25.5938C23.2688 28.2563 20.8751 30.05 18.0001 30.975ZM18.0001 5.96253L8.77507 9.41253V16.575C8.77507 18.175 9.01882 19.7188 9.50632 21.2063C9.99382 22.6938 10.6751 24.05 11.5501 25.275C12.5501 24.75 13.5751 24.3438 14.6251 24.0563C15.6751 23.7688 16.8001 23.625 18.0001 23.625C19.2001 23.625 20.3251 23.7688 21.3751 24.0563C22.4251 24.3438 23.4501 24.75 24.4501 25.275C25.3251 24.05 26.0063 22.6938 26.4938 21.2063C26.9813 19.7188 27.2251 18.175 27.2251 16.575V9.41253L18.0001 5.96253ZM18.0001 24.45C16.9001 24.45 15.8501 24.575 14.8501 24.825C13.8501 25.075 12.9126 25.425 12.0376 25.875C12.8376 26.875 13.7376 27.7313 14.7376 28.4438C15.7376 29.1563 16.8251 29.7 18.0001 30.075C19.1751 29.7 20.2563 29.1563 21.2438 28.4438C22.2313 27.7313 23.1251 26.875 23.9251 25.875C23.0501 25.425 22.1188 25.075 21.1313 24.825C20.1438 24.575 19.1001 24.45 18.0001 24.45Z" fill="currentColor"/>
</svg>
