<svg width="36" height="36" viewBox="0 0 36 36" fill="none" xmlns="http://www.w3.org/2000/svg">
<path d="M18.0064 31.05C16.2022 31.05 14.5056 30.7076 12.9166 30.0228C11.3276 29.3381 9.94544 28.4087 8.77019 27.2347C7.59469 26.0607 6.6642 24.6803 5.9787 23.0936C5.29295 21.5066 4.95007 19.8108 4.95007 18.0063C4.95007 16.2021 5.29245 14.5055 5.9772 12.9165C6.66195 11.3275 7.59132 9.94535 8.76532 8.7701C9.93932 7.5946 11.3197 6.6641 12.9064 5.9786C14.4934 5.29285 16.1892 4.94998 17.9937 4.94998C19.7979 4.94998 21.4946 5.29235 23.0836 5.9771C24.6726 6.66185 26.0547 7.59123 27.2299 8.76523C28.4054 9.93923 29.3359 11.3196 30.0214 12.9064C30.7072 14.4934 31.0501 16.1891 31.0501 17.9936C31.0501 19.7978 30.7077 21.4945 30.0229 23.0835C29.3382 24.6725 28.4088 26.0546 27.2348 27.2298C26.0608 28.4053 24.6804 29.3358 23.0937 30.0213C21.5067 30.7071 19.8109 31.05 18.0064 31.05ZM17.9963 30.225C21.4083 30.225 24.2994 29.041 26.6697 26.673C29.0399 24.3052 30.2251 21.4155 30.2251 18.0037C30.2251 14.5917 29.0411 11.7006 26.6731 9.33035C24.3053 6.9601 21.4156 5.77498 18.0038 5.77498C14.5921 5.77498 11.7009 6.95898 9.33044 9.32698C6.9602 11.6947 5.77507 14.5845 5.77507 17.9962C5.77507 21.408 6.95907 24.2991 9.32707 26.6696C11.6948 29.0398 14.5846 30.225 17.9963 30.225ZM18.0091 25.05C16.0531 25.05 14.3876 24.3655 13.0126 22.9965C11.6376 21.6272 10.9501 19.9647 10.9501 18.009C10.9501 16.053 11.6346 14.3875 13.0036 13.0125C14.3728 11.6375 16.0353 10.95 17.9911 10.95C19.9471 10.95 21.6126 11.6345 22.9876 13.0035C24.3626 14.3727 25.0501 16.0352 25.0501 17.991C25.0501 19.947 24.3656 21.6125 22.9966 22.9875C21.6273 24.3625 19.9648 25.05 18.0091 25.05ZM17.9941 24.225C19.7231 24.225 21.1938 23.6207 22.4063 22.4122C23.6188 21.2037 24.2251 19.735 24.2251 18.006C24.2251 16.277 23.6208 14.8062 22.4123 13.5937C21.2038 12.3812 19.7351 11.775 18.0061 11.775C16.2771 11.775 14.8063 12.3792 13.5938 13.5877C12.3813 14.7962 11.7751 16.265 11.7751 17.994C11.7751 19.723 12.3793 21.1937 13.5878 22.4062C14.7963 23.6187 16.2651 24.225 17.9941 24.225ZM18.0001 19.05C17.7251 19.05 17.4813 18.9437 17.2688 18.7312C17.0563 18.5187 16.9501 18.275 16.9501 18C16.9501 17.725 17.0563 17.4812 17.2688 17.2687C17.4813 17.0562 17.7251 16.95 18.0001 16.95C18.2751 16.95 18.5188 17.0562 18.7313 17.2687C18.9438 17.4812 19.0501 17.725 19.0501 18C19.0501 18.275 18.9438 18.5187 18.7313 18.7312C18.5188 18.9437 18.2751 19.05 18.0001 19.05Z" fill="currentColor"/>
</svg>
